<svg version="1.2" baseProfile="tiny" viewBox="0 0 99.995 120.155" xmlns:xlink="http://www.w3.org/1999/xlink" xmlns="http://www.w3.org/2000/svg">
<path style="fill:#ffffff;" d="M97.1911,43.8446L97.1911,36.4622C97.1911,36.4622,93.8533,36.4622,92.4094,36.4622C91.2294,36.4694,90.6955,35.4674,90.6955,35.4674L90.6955,43.8446L91.7384,43.8446L91.7384,56.2157L91.2174,56.2157L91.2174,60.5954L8.9436,60.5954L8.9436,56.3022L8.9436,56.3022L8.4216,56.3022L8.4216,43.7532L8.4216,43.7532L9.4645,43.7532L9.4645,35.0781C9.4645,35.0781,9.0715,36.467,7.5846,36.467C5.6717,36.467,2.9679,36.4574,2.9679,36.4574L2.9679,43.7532L4.0108,43.7532L4.0108,56.301L3.4908,56.301L3.4908,112.0037L3.4908,112.0037L2.9689,112.0037L2.9689,119.0856L2.9689,119.0856L9.4655,119.0856L9.4655,112.0037L8.9436,112.0037L8.9436,112.0037L8.9436,96.1024L91.2164,96.1024L91.2164,112.0962L90.6945,112.0962L90.6945,119.1781L97.1911,119.1781L97.1911,112.0962L96.6702,112.0962L96.6702,56.2157L96.1492,56.2157L96.1492,43.8446L97.1911,43.8446L97.1911,43.8446M8.9436,92.4989L8.9436,64.1243L91.2164,64.1243L91.2164,92.4989L8.9436,92.4989L8.9436,92.4989Z"/>
</svg>