<svg version="1.2" baseProfile="tiny" viewBox="0 0 99.995 120.155" xmlns:xlink="http://www.w3.org/1999/xlink" xmlns="http://www.w3.org/2000/svg">
<path style="fill:#ffffff;" d="M4.8938,1.4419L4.8938,3.4028C4.8938,3.6575,5.1027,3.8666,5.3577,3.8666L7.0296,3.8666L7.0296,3.8666C7.2846,3.8666,7.4936,3.6575,7.4936,3.4028L7.4936,1.4419C7.4936,1.1871,7.2846,0.9781,7.0296,0.9781L5.3577,0.9781L5.3577,0.9781C5.1027,0.9781,4.8938,1.1871,4.8938,1.4419M92.7214,1.4419L92.7214,3.4028C92.7214,3.6575,92.9304,3.8666,93.1843,3.8666L94.8563,3.8666C95.1113,3.8666,95.3202,3.6575,95.3202,3.4028L95.3202,1.4419C95.3202,1.1871,95.1113,0.9781,94.8563,0.9781L93.1843,0.9781C92.9304,0.9781,92.7214,1.1871,92.7214,1.4419M92.4094,11.9614C91.7774,11.9614,91.2194,12.2582,90.8655,12.71L88.6756,12.71L88.6756,13.5042L90.4725,13.4994L90.4725,15.2393L88.6756,15.2441L88.6756,16.8265C88.6756,17.4465,88.1966,17.9488,87.6046,17.9488L12.5724,17.9488L12.5724,17.9488C11.9804,17.9488,11.5004,17.4465,11.5004,16.8265L11.5004,15.2441L9.5225,15.2441L9.5225,13.5042L9.5225,13.5042L11.5004,13.5042L11.5004,13.5042L11.5004,12.71L9.1295,12.71L9.1295,12.71C8.7756,12.2582,8.2186,11.9614,7.5866,11.9614L7.5866,11.9614L0.983,11.9614L0.983,12.7244L0.983,13.4874L0.983,34.9327L0.983,35.4445L0.983,36.4574L0.983,36.4574L7.5856,36.4574L7.5856,36.4574C8.5206,36.4574,9.3015,35.8194,9.4825,34.9723C9.5045,34.8678,9.5135,34.7584,9.5165,34.6491L9.5165,34.6503C9.5785,35.3027,10.1375,36.5403,11.8124,36.5403L48.4096,36.5403L48.4096,36.5403L52.8754,36.5403L88.1826,36.5403C89.8575,36.5403,90.4165,35.3027,90.4775,34.6503L90.4775,34.6467C90.5055,35.65,91.3594,36.4574,92.4094,36.4574L99.0121,36.4574L99.0121,35.4445L99.0121,34.9327L99.0121,13.4874L99.0121,12.7244L99.0121,11.9614L92.4094,11.9614L92.4094,11.9614M4.2798,34.0231C3.6738,34.0231,3.1818,33.5305,3.1818,32.9249C3.1818,32.3193,3.6728,31.8255,4.2798,31.8255C4.8868,31.8255,5.3777,32.3181,5.3777,32.9249C5.3777,33.5305,4.8868,34.0231,4.2798,34.0231M4.2798,25.6206C3.6738,25.6206,3.1818,25.1304,3.1818,24.5236C3.1818,23.9169,3.6728,23.4254,4.2798,23.4254C4.8868,23.4254,5.3777,23.9169,5.3777,24.5236C5.3777,25.1304,4.8868,25.6206,4.2798,25.6206M4.2798,17.1846C3.6738,17.1846,3.1818,16.6931,3.1818,16.0876C3.1818,15.4808,3.6728,14.9893,4.2798,14.9893C4.8868,14.9893,5.3777,15.4808,5.3777,16.0876C5.3777,16.6931,4.8868,17.1846,4.2798,17.1846M95.7152,34.0231C95.1092,34.0231,94.6173,33.5305,94.6173,32.9249C94.6173,32.3193,95.1092,31.8255,95.7152,31.8255C96.3212,31.8255,96.8122,32.3181,96.8122,32.9249C96.8122,33.5305,96.3212,34.0231,95.7152,34.0231M95.7152,25.6206C95.1092,25.6206,94.6173,25.1304,94.6173,24.5236C94.6173,23.9169,95.1092,23.4254,95.7152,23.4254C96.3212,23.4254,96.8122,23.9169,96.8122,24.5236C96.8122,25.1304,96.3212,25.6206,95.7152,25.6206M95.7152,17.1846C95.1092,17.1846,94.6173,16.6931,94.6173,16.0876C94.6173,15.4808,95.1092,14.9893,95.7152,14.9893C96.3212,14.9893,96.8122,15.4808,96.8122,16.0876C96.8122,16.6931,96.3212,17.1846,95.7152,17.1846Z"/>
</svg>