<svg version="1.2" baseProfile="tiny" viewBox="0 0 213.242 213.244" xmlns:xlink="http://www.w3.org/1999/xlink" xmlns="http://www.w3.org/2000/svg">
<path style="fill:#ffffff;" d="M98.9891,213.244L90.3101,213.244L90.3101,213.244C90.3101,212.9647,90.3059,211.3802,90.308,211.1009C90.4189,195.4189,93.6346,180.0504,99.8698,165.4048C106.0133,150.9725,114.7754,137.9433,125.9151,126.6797C137.1253,115.3394,150.1266,106.4152,164.5567,100.1564C179.2683,93.774,194.8179,90.4645,210.7876,90.311C211.1714,90.3088,212.8582,90.311,213.242,90.311L213.242,98.99C212.8091,98.99,211.0755,99.0028,210.6426,99.0092C150.3441,99.7278,99.5819,150.5588,98.9933,210.8791C98.9891,211.2331,98.9891,212.8858,98.9891,213.244M213.242,1.0108C96.0037,1.0108,1.0108,96.0046,1.0108,213.244L9.6897,213.244C9.6897,100.7812,100.7803,9.6898,213.242,9.6898L213.242,1.0108Z"/>
</svg>