<svg version="1.2" baseProfile="tiny" viewBox="0 0 100.0 36.566" xmlns:xlink="http://www.w3.org/1999/xlink" xmlns="http://www.w3.org/2000/svg">
<path style="fill:#ffffff;" d="M90.54,13.5141L88.677,13.5141L88.677,11.9209C88.677,11.3011,88.198,10.799,87.606,10.799L12.577,10.799L12.577,10.799C11.985,10.799,11.505,11.3011,11.505,11.9209L11.505,13.5141L9.5,13.5141L9.5,13.5141C9.5,13.5141,9.528,13.6962,9.528,14.196L9.526,15.2539L11.505,15.2539L11.505,16.8372C11.505,17.457,11.985,17.9601,12.577,17.9601L87.606,17.9601C88.198,17.9601,88.677,17.4581,88.677,16.8372L88.677,15.2539L90.54,15.2539L90.54,13.5141Z"/>
</svg>