<svg version="1.2" baseProfile="tiny" id="EdgeSVG_nrm8U" x="0px" y="0px" width="213.242px" height="213.244px" viewBox="0 0 213.242 213.244" xmlns:xlink="http://www.w3.org/1999/xlink" xmlns="http://www.w3.org/2000/svg">
  <linearGradient id="SVGID_1_" gradientUnits="userSpaceOnUse" x1="0" y1="106.6221" x2="213.2422" y2="106.6221">
    <stop offset="0" style="stop-color:#000000;stop-opacity:0.5"/>
    <stop offset="1" style="stop-color:#000000;stop-opacity:0.5"/>
  </linearGradient>
  <path fill="url(#SVGID_1_)" d="M213.242,0L213.242,0C95.64,0,0,95.641,0,213.244h10.698c0-0.875-0.01-1.669,0.001-2.542&#xD;&#xA;&#x9;&#x9;c0.351,0.362,0.767,0.523,1.287,0.542l0.218,0.008l75.866,1.272c0.468,0,0.891-0.163,1.235-0.428&#xD;&#xA;&#x9;&#x9;c-0.001,0.926-0.004,1.149-0.004,1.149h10.651H100c0-0.352,0.001-2,0.005-2.353c0.578-59.395,51.249-110.173,110.65-110.882&#xD;&#xA;&#x9;&#x9;c0.43-0.005,2.157-0.008,2.587-0.008l0,0V89.302c0,0-0.285,0-1.301,0.002c0.292-0.367,0.464-0.818,0.443-1.308l-1.361-75.985&#xD;&#xA;&#x9;&#x9;c-0.022-0.534-0.177-0.965-0.539-1.317c0.931,0.008,1.813,0.005,2.758,0.005V0z M184.852,14.052l10.202,75.257&#xD;&#xA;&#x9;&#x9;c0.047,0.43,0.229,0.812,0.5,1.117c-0.651,0.09-1.3,0.188-1.948,0.289c0.167-0.367,0.227-0.781,0.146-1.195l-12.657-74.938&#xD;&#xA;&#x9;&#x9;c-0.102-0.528-0.407-0.972-0.825-1.271c1.66-0.272,3.328-0.526,5.003-0.758C184.954,12.966,184.788,13.494,184.852,14.052z&#xD;&#xA;&#x9;&#x9; M101.046,160.371c-0.209-0.375-0.526-0.687-0.939-0.866L31.102,127.66c-0.258-0.113-0.53-0.17-0.811-0.17&#xD;&#xA;&#x9;&#x9;c-0.231,0-0.453,0.047-0.666,0.12c0.708-1.512,1.434-3.012,2.177-4.503c0.167,0.477,0.5,0.897,0.983,1.152l67.883,34.053&#xD;&#xA;&#x9;&#x9;c0.292,0.156,0.621,0.239,0.953,0.239c0.113,0,0.222-0.028,0.332-0.047C101.646,159.125,101.343,159.746,101.046,160.371z&#xD;&#xA;&#x9;&#x9; M97.395,168.863c-0.234-0.346-0.569-0.621-0.983-0.765L25.23,141.494c-0.121-0.043-0.247-0.074-0.383-0.094&#xD;&#xA;&#x9;&#x9;c-0.155-0.037-0.315-0.056-0.476-0.056c-0.208,0-0.411,0.038-0.604,0.097c0.583-1.531,1.182-3.054,1.8-4.566&#xD;&#xA;&#x9;&#x9;c0.2,0.475,0.569,0.879,1.08,1.1l70.234,28.893c0.259,0.114,0.533,0.173,0.817,0.173c0.152,0,0.298-0.035,0.443-0.067&#xD;&#xA;&#x9;&#x9;C97.888,167.602,97.64,168.231,97.395,168.863z M13.93,185.064c-0.074-0.008-0.148-0.012-0.223-0.012&#xD;&#xA;&#x9;&#x9;c-0.438,0-0.841,0.145-1.177,0.383c0.225-1.638,0.47-3.27,0.735-4.896c0.298,0.39,0.727,0.679,1.241,0.774l0.915,0.156l0.001-0.005&#xD;&#xA;&#x9;&#x9;l74.062,12.42c0.13,0.026,0.26,0.039,0.388,0.039c0.299,0,0.581-0.072,0.839-0.191c-0.094,0.602-0.179,1.205-0.262,1.808&#xD;&#xA;&#x9;&#x9;c-0.269-0.185-0.575-0.314-0.918-0.353l-0.391-0.019l-74.32-9.988v-0.02L13.93,185.064z M16.25,165.746&#xD;&#xA;&#x9;&#x9;c0.268,0.388,0.66,0.691,1.146,0.82l0.979,0.234l0.001-0.004l72.897,17.906c0.176,0.048,0.355,0.072,0.535,0.072&#xD;&#xA;&#x9;&#x9;c0.234,0,0.462-0.041,0.676-0.115c-0.151,0.636-0.289,1.274-0.429,1.912c-0.281-0.292-0.645-0.502-1.063-0.581l-73.458-15.526&#xD;&#xA;&#x9;&#x9;l0.004-0.018l-0.727-0.133l-0.176-0.039l-0.096-0.012c-0.123-0.023-0.248-0.035-0.369-0.035c-0.363,0-0.707,0.1-1.008,0.27&#xD;&#xA;&#x9;&#x9;C15.508,168.907,15.868,167.324,16.25,165.746z M94.388,177.606c-0.258-0.314-0.606-0.554-1.02-0.664l-72.978-21.22&#xD;&#xA;&#x9;&#x9;c-0.056-0.016-0.113-0.026-0.132-0.026c-0.005,0-0.007,0-0.007,0.002c-0.17-0.045-0.345-0.067-0.518-0.067&#xD;&#xA;&#x9;&#x9;c-0.289,0-0.563,0.067-0.818,0.177c0.455-1.534,0.927-3.059,1.416-4.579c0.238,0.381,0.594,0.688,1.047,0.845l0.855,0.258&#xD;&#xA;&#x9;&#x9;l71.51,23.347c0.219,0.078,0.447,0.117,0.678,0.117c0.191,0,0.375-0.038,0.554-0.089C94.773,176.339,94.579,176.973,94.388,177.606&#xD;&#xA;&#x9;&#x9;z M105.314,152.171c-0.178-0.401-0.475-0.746-0.881-0.959l-66.438-36.908c-0.291-0.152-0.619-0.234-0.948-0.234&#xD;&#xA;&#x9;&#x9;c-0.166,0-0.329,0.029-0.488,0.067c0.812-1.44,1.64-2.87,2.486-4.289c0.135,0.477,0.431,0.908,0.884,1.191l65.15,39.025&#xD;&#xA;&#x9;&#x9;c0.325,0.206,0.701,0.315,1.086,0.315c0.072,0,0.139-0.02,0.209-0.027C106.018,150.957,105.661,151.56,105.314,152.171z&#xD;&#xA;&#x9;&#x9; M110.18,144.31c-0.145-0.422-0.417-0.798-0.813-1.046l-63.498-41.762c-0.323-0.203-0.697-0.31-1.08-0.31&#xD;&#xA;&#x9;&#x9;c-0.108,0-0.211,0.024-0.315,0.041c0.911-1.368,1.839-2.724,2.78-4.067c0.105,0.474,0.364,0.915,0.786,1.224l62.058,43.779&#xD;&#xA;&#x9;&#x9;c0.352,0.262,0.771,0.4,1.212,0.4c0.026,0,0.052-0.008,0.077-0.009C110.981,143.141,110.575,143.722,110.18,144.31z&#xD;&#xA;&#x9;&#x9; M115.619,136.84c-0.11-0.444-0.354-0.85-0.74-1.133L54.676,89.322c-0.352-0.258-0.77-0.396-1.208-0.396&#xD;&#xA;&#x9;&#x9;c-0.046,0-0.092,0.013-0.138,0.017c1.003-1.287,2.021-2.562,3.053-3.824c0.072,0.474,0.297,0.924,0.689,1.262l58.616,48.287&#xD;&#xA;&#x9;&#x9;c0.354,0.307,0.805,0.477,1.276,0.492C116.512,135.716,116.063,136.277,115.619,136.84z M121.596,129.785&#xD;&#xA;&#x9;&#x9;c-0.072-0.457-0.287-0.888-0.656-1.203L64.367,77.833c-0.36-0.309-0.82-0.478-1.297-0.488c1.09-1.203,2.195-2.394,3.313-3.57&#xD;&#xA;&#x9;&#x9;c0.038,0.476,0.228,0.94,0.593,1.304l54.851,52.527c0.333,0.338,0.771,0.534,1.242,0.581&#xD;&#xA;&#x9;&#x9;C122.571,128.714,122.085,129.249,121.596,129.785z M128.079,123.166c-0.04-0.457-0.224-0.896-0.563-1.236L74.888,67.101&#xD;&#xA;&#x9;&#x9;c-0.341-0.34-0.786-0.535-1.263-0.578c1.179-1.122,2.371-2.23,3.577-3.324c0.001,0.479,0.156,0.958,0.493,1.349l50.777,56.474&#xD;&#xA;&#x9;&#x9;c0.302,0.356,0.719,0.587,1.175,0.672C129.119,122.177,128.601,122.672,128.079,123.166z M135.039,117.023&#xD;&#xA;&#x9;&#x9;c-0.016-0.445-0.164-0.884-0.47-1.238L86.18,57.183c-0.313-0.365-0.748-0.594-1.219-0.672c1.26-1.033,2.532-2.052,3.817-3.055&#xD;&#xA;&#x9;&#x9;c-0.036,0.48,0.083,0.973,0.394,1.391l46.419,60.107c0.269,0.366,0.655,0.62,1.088,0.745&#xD;&#xA;&#x9;&#x9;C136.129,116.134,135.583,116.578,135.039,117.023z M142.062,110.187l-43.88-62.053c-0.292-0.395-0.705-0.662-1.174-0.771&#xD;&#xA;&#x9;&#x9;c1.336-0.94,2.687-1.864,4.047-2.772c-0.079,0.482,0.001,0.992,0.282,1.438l41.806,63.404c0.236,0.378,0.591,0.646,0.994,0.803&#xD;&#xA;&#x9;&#x9;c-0.567,0.385-1.133,0.775-1.695,1.17C142.449,110.977,142.329,110.548,142.062,110.187z M149.952,105.162l-39.128-65.153&#xD;&#xA;&#x9;&#x9;c-0.269-0.425-0.68-0.72-1.15-0.86c1.419-0.846,2.847-1.676,4.287-2.488c-0.125,0.484-0.085,1.009,0.168,1.484l36.957,66.347&#xD;&#xA;&#x9;&#x9;c0.2,0.383,0.52,0.669,0.895,0.858c-0.581,0.333-1.159,0.668-1.734,1.009C150.274,105.946,150.184,105.527,149.952,105.162z&#xD;&#xA;&#x9;&#x9; M158.195,100.739l-34.156-67.892c-0.242-0.456-0.649-0.78-1.123-0.95c1.492-0.746,2.995-1.475,4.508-2.186&#xD;&#xA;&#x9;&#x9;c-0.17,0.48-0.17,1.02,0.049,1.523l31.902,68.919c0.166,0.384,0.445,0.695,0.789,0.911c-0.587,0.279-1.175,0.559-1.757,0.848&#xD;&#xA;&#x9;&#x9;C158.457,101.519,158.391,101.109,158.195,100.739z M166.744,96.945l-28.994-70.25c-0.211-0.484-0.609-0.84-1.082-1.042&#xD;&#xA;&#x9;&#x9;c1.558-0.638,3.125-1.257,4.701-1.858c-0.214,0.472-0.26,1.019-0.073,1.546l26.669,71.109c0.136,0.389,0.387,0.709,0.703,0.946&#xD;&#xA;&#x9;&#x9;c-0.599,0.231-1.199,0.46-1.794,0.702C166.942,97.718,166.908,97.318,166.744,96.945z M175.554,93.798l-23.671-72.217&#xD;&#xA;&#x9;&#x9;c-0.179-0.508-0.561-0.893-1.027-1.127c1.612-0.523,3.23-1.026,4.859-1.509c-0.255,0.457-0.344,1.006-0.195,1.551l21.289,72.9&#xD;&#xA;&#x9;&#x9;c0.103,0.393,0.324,0.729,0.614,0.988c-0.609,0.184-1.219,0.367-1.825,0.561C175.691,94.574,175.687,94.177,175.554,93.798z&#xD;&#xA;&#x9;&#x9; M184.572,91.319l-18.213-73.784c-0.141-0.518-0.482-0.941-0.925-1.209c1.641-0.398,3.288-0.775,4.942-1.134&#xD;&#xA;&#x9;&#x9;c-0.289,0.437-0.417,0.98-0.313,1.535l15.789,74.287c0.076,0.405,0.275,0.759,0.549,1.04c-0.625,0.137-1.25,0.277-1.874,0.424&#xD;&#xA;&#x9;&#x9;C184.653,92.11,184.679,91.711,184.572,91.319z M12.355,200.017c-0.511,0-0.972,0.193-1.332,0.504&#xD;&#xA;&#x9;&#x9;c0.105-1.672,0.229-3.34,0.374-5.001c0.314,0.371,0.751,0.636,1.261,0.708l0.814,0.086l0.004-0.01l74.91,6.871&#xD;&#xA;&#x9;&#x9;c0.074,0.008,0.146,0.013,0.219,0.013c0.042,0,0.083-0.001,0.125-0.005c0.05,0.004,0.098,0.005,0.146,0.005&#xD;&#xA;&#x9;&#x9;c0.271,0,0.529-0.055,0.768-0.152c-0.047,0.646-0.096,1.292-0.133,1.939c-0.336-0.285-0.753-0.469-1.214-0.485L12.355,200.017z&#xD;&#xA;&#x9;&#x9; M204.353,88.298c0.016,0.465,0.194,0.882,0.476,1.217c-0.691,0.041-1.383,0.095-2.073,0.147c0.223-0.37,0.336-0.802,0.285-1.252&#xD;&#xA;&#x9;&#x9;l-7.028-75.675c-0.063-0.529-0.327-0.992-0.711-1.318c1.668-0.148,3.34-0.273,5.019-0.38c-0.343,0.388-0.545,0.896-0.522,1.451&#xD;&#xA;&#x9;&#x9;L204.353,88.298z"/>
</svg>