<svg version="1.2" baseProfile="tiny" viewBox="0 0 100.0 36.566" xmlns:xlink="http://www.w3.org/1999/xlink" xmlns="http://www.w3.org/2000/svg">
<path style="fill:#ffffff;" d="M92.722,3.4142L92.722,1.4531C92.722,1.1979,92.93,0.9891,93.185,0.9891L94.857,0.9891C95.112,0.9891,95.321,1.1979,95.321,1.4531L95.321,3.4142C95.321,3.669,95.112,3.8789,94.857,3.8789L93.185,3.8789C92.93,3.8789,92.722,3.669,92.722,3.4142M99.012,11.9721L99.012,12.7348L99.012,13.498L99.012,34.9421L99.012,35.4529L99.012,36.468L92.409,36.468C91.364,36.468,90.513,35.669,90.475,34.6719C90.41,35.3279,89.848,36.5499,88.183,36.5499L52.878,36.5499L52.878,36.5499L48.412,36.5499L11.817,36.5499L11.817,36.5499C10.153,36.5499,9.592,35.3312,9.525,34.6741C9.516,34.9059,9.465,35.1279,9.376,35.3312C9.082,35.9989,8.393,36.468,7.592,36.468L7.592,36.468L0.989,36.468L0.989,35.4529L0.989,34.9421L0.989,13.498L0.989,13.498L0.989,12.7348L0.989,11.9721L7.591,11.9721L7.591,11.9721C8.224,11.9721,8.787,12.2672,9.14,12.7209L11.504,12.7209L11.504,13.5152L9.5,13.5152L9.5,13.5152C9.5,13.5152,9.528,13.6969,9.528,14.1971L9.526,15.255L11.505,15.255L11.505,16.8379C11.505,17.4581,11.985,17.9609,12.577,17.9609L87.606,17.9609C88.198,17.9609,88.677,17.4592,88.677,16.8379L88.677,15.255L90.54,15.255L90.54,13.5152L88.677,13.5152L88.677,12.7198L90.861,12.7198C91.215,12.2672,91.776,11.971,92.41,11.971L99.012,11.971L99.012,11.971M5.383,32.935C5.383,32.3291,4.892,31.8358,4.286,31.8358C3.68,31.8358,3.188,32.328,3.188,32.935C3.188,33.5409,3.679,34.0331,4.286,34.0331C4.892,34.032,5.383,33.5409,5.383,32.935M5.383,24.5329C5.383,23.9259,4.892,23.4341,4.286,23.4341C3.68,23.4341,3.188,23.9259,3.188,24.5329C3.188,25.1391,3.679,25.6298,4.286,25.6298C4.892,25.6298,5.383,25.1399,5.383,24.5329M5.383,16.0971C5.383,15.4901,4.892,14.999,4.286,14.999C3.68,14.999,3.188,15.4901,3.188,16.0971C3.188,16.703,3.679,17.1952,4.286,17.1952C4.892,17.1952,5.383,16.703,5.383,16.0971M96.813,32.935C96.813,32.3291,96.322,31.8358,95.715,31.8358C95.108,31.8358,94.617,32.328,94.617,32.935C94.617,33.5409,95.108,34.0331,95.715,34.0331C96.322,34.0331,96.813,33.5409,96.813,32.935M96.813,24.5329C96.813,23.9259,96.322,23.4341,95.715,23.4341C95.108,23.4341,94.617,23.9259,94.617,24.5329C94.617,25.1391,95.108,25.6298,95.715,25.6298C96.322,25.6298,96.813,25.1399,96.813,24.5329M96.813,16.0971C96.813,15.4901,96.322,14.999,95.715,14.999C95.108,14.999,94.617,15.4901,94.617,16.0971C94.617,16.703,95.108,17.1952,95.715,17.1952C96.322,17.1952,96.813,16.703,96.813,16.0971M5.363,3.8789L7.035,3.8789C7.29,3.8789,7.499,3.6701,7.499,3.4142L7.499,1.4531C7.499,1.1979,7.29,0.9891,7.035,0.9891L5.363,0.9891L5.363,0.9891C5.109,0.9891,4.899,1.1979,4.899,1.4531L4.899,3.4142C4.899,3.669,5.109,3.8789,5.363,3.8789Z"/>
</svg>