<svg version="1.2" baseProfile="tiny" viewBox="0 0 213.242 213.244" xmlns:xlink="http://www.w3.org/1999/xlink" xmlns="http://www.w3.org/2000/svg">
<path style="fill:#ffffff;" d="M90.8368,207.8532L90.8582,207.8553C90.8219,208.3543,90.7899,208.8554,90.7601,209.3587L90.7409,209.3587L89.1714,209.299L89.1309,210.4526C89.1096,211.0668,88.6127,211.5466,88.0242,211.521L12.093,210.2479L12.093,210.2501C12.0908,210.2501,12.0887,210.2479,12.0866,210.2479L12.0631,210.2479C11.4767,210.2266,11.0161,209.7106,11.0395,209.0943L11.1376,206.3498L9.2782,206.2858C9.3016,205.7847,9.3251,205.2815,9.3528,204.7825L9.549,204.7889C9.549,204.7825,9.549,204.7761,9.549,204.7697L9.5682,204.7697C9.5682,204.7761,9.566,204.7825,9.566,204.7889L11.1909,204.8465L11.1909,204.8422L11.289,202.0892C11.3104,201.4751,11.8051,200.9953,12.3958,201.0166L88.2395,205.4883C88.826,205.5118,89.2866,206.0236,89.2652,206.642L89.2269,207.7914L90.8368,207.8532M90.227,198.5813L90.2312,198.5536L90.357,197.4085C90.4231,196.7922,90.0031,196.2463,89.4209,196.1802L89.4145,196.2442C89.3356,196.2143,89.2546,196.1909,89.1671,196.1802L13.8671,186.0618C13.8501,186.0597,13.8351,186.0639,13.8202,186.0618L13.8202,186.0575C13.2338,185.9936,12.7071,186.4371,12.641,187.047L12.3446,189.785L10.7175,189.608C10.7197,189.6016,10.7197,189.5931,10.7218,189.5888L10.7026,189.5867C10.7026,189.591,10.7005,189.5974,10.7005,189.6038L10.5022,189.5824C10.4403,190.0814,10.3785,190.5804,10.3188,191.0773L12.1825,191.282L11.8882,194.0158C11.8243,194.6278,12.2444,195.1758,12.8286,195.2398L12.8308,195.2377C12.835,195.2377,12.8414,195.2398,12.8478,195.2419L88.5018,202.183C88.5871,202.1916,88.6724,202.1873,88.7556,202.1766L88.7556,202.183C89.3377,202.2491,89.8687,201.8077,89.9369,201.1978L90.0606,200.0783L91.3721,200.2255L91.3913,200.2276C91.4574,199.7286,91.5277,199.2296,91.6002,198.7327L91.5789,198.7306L90.227,198.5813M91.419,189.3948L91.628,188.2625C91.741,187.6547,91.3635,187.079,90.7857,186.9702L16.4516,171.2584C16.4218,171.2541,16.3898,171.2541,16.3599,171.252L16.3599,171.2456C15.7778,171.139,15.2169,171.542,15.1082,172.1455L14.6092,174.8558L13.0014,174.5551C13.0035,174.5487,13.0035,174.5423,13.0078,174.5359L12.9864,174.5359C12.9864,174.5381,12.9843,174.5466,12.9843,174.5509L12.7881,174.5146C12.69,175.0072,12.5898,175.4998,12.4938,175.9924L14.3363,176.3357L13.8394,179.0397C13.7307,179.6431,14.1102,180.2232,14.6881,180.3298L14.6902,180.317C14.7116,180.3234,14.7308,180.334,14.7521,180.3362L89.6789,192.9026C90.2547,193.0157,90.8176,192.6148,90.9307,192.0092L91.1418,190.8768L92.6856,191.169L92.7048,191.1711C92.8093,190.6785,92.9159,190.188,93.0247,189.6976L92.9991,189.6933L91.419,189.3948M93.5386,180.3682L93.8329,179.2551C93.9907,178.6601,93.6559,178.0545,93.0908,177.9031L20.1343,156.6896C20.0874,156.6789,20.0426,156.6746,19.9957,156.6682L19.9978,156.6661C19.4263,156.5168,18.8378,156.8751,18.6821,157.47L17.9848,160.1356L16.4026,159.7155C16.4026,159.7091,16.4068,159.7048,16.4068,159.6984L16.3898,159.692C16.3876,159.6984,16.3855,159.707,16.3834,159.7112L16.1915,159.66C16.055,160.142,15.9206,160.6261,15.7884,161.1122L17.601,161.592L16.9037,164.2491C16.748,164.8461,17.0828,165.4496,17.65,165.601L17.6564,165.5776C17.6927,165.5904,17.7247,165.6074,17.7609,165.616L91.5405,183.7396C92.1056,183.8952,92.6984,183.537,92.8562,182.942L93.1505,181.8268L94.6688,182.2341L94.688,182.2405C94.8287,181.7564,94.9716,181.2723,95.1187,180.7925L95.0953,180.7861L93.5386,180.3682M96.3235,171.5271L96.701,170.4395C96.9057,169.8553,96.6136,169.2283,96.0613,169.0343L24.8917,142.4342C24.815,142.4086,24.7382,142.3915,24.6593,142.383C24.1155,142.2274,23.5355,142.5366,23.3415,143.1017L22.4459,145.7054L20.8977,145.168C20.8998,145.1637,20.902,145.1573,20.9062,145.1531L20.8871,145.1445C20.8871,145.1531,20.8828,145.1573,20.8807,145.1637L20.693,145.0976C20.5224,145.571,20.3497,146.0423,20.1812,146.5157L21.9533,147.1277L21.0598,149.7271C20.8593,150.3093,21.1472,150.9384,21.7038,151.1303L21.7187,151.0919C21.7656,151.1154,21.8083,151.1409,21.8594,151.158L94.0802,174.7364C94.6347,174.9347,95.2509,174.6191,95.4514,174.0391L95.831,172.9494L97.313,173.4697L97.3322,173.4761C97.507,173.0049,97.6862,172.5357,97.8674,172.0666L97.844,172.0581L96.3235,171.5271M99.7653,162.9163L100.2237,161.8607C100.469,161.2914,100.2259,160.6452,99.6885,160.4128L30.7047,128.5755C30.1609,128.3388,29.5255,128.6053,29.2824,129.1704L28.1863,131.6952L26.6872,131.0427C26.6894,131.0363,26.6915,131.032,26.6958,131.0257L26.6766,131.0171C26.6766,131.0235,26.6723,131.0299,26.668,131.0342L26.4889,130.9553C26.2799,131.4116,26.071,131.868,25.8663,132.3286L27.585,133.077L26.4932,135.5997C26.248,136.167,26.4889,136.8152,27.0263,137.0498L97.2853,165.9507C97.8248,166.1896,98.4624,165.923,98.7076,165.3579L99.1639,164.2981L100.6054,164.925L100.6225,164.9336C100.8336,164.4751,101.0469,164.0209,101.2622,163.5688L101.243,163.5582L99.7653,162.9163M103.8361,154.5891L104.3713,153.5698C104.657,153.0218,104.4651,152.3586,103.9469,152.0856L37.5306,115.188C37.0081,114.9151,36.3556,115.1304,36.0699,115.6763L34.7883,118.1137L33.3404,117.3503C33.3447,117.346,33.3489,117.3396,33.351,117.3333L33.334,117.3247C33.3319,117.329,33.3276,117.3354,33.3233,117.3418L33.1485,117.248C32.9075,117.6894,32.6687,118.1308,32.4298,118.5722L34.0867,119.4486L32.8073,121.8817C32.5237,122.4276,32.7113,123.093,33.2338,123.3659L101.1407,157.4316C101.6567,157.7089,102.3135,157.4914,102.5971,156.9454L103.1366,155.924L104.5248,156.6576L104.5419,156.6661C104.785,156.2268,105.0323,155.7875,105.2818,155.3525L105.2605,155.3419L103.8361,154.5891M108.521,146.5861L109.1287,145.6094C109.455,145.0848,109.3121,144.4088,108.8153,144.0975L45.3395,102.3486C44.8363,102.033,44.1709,102.2036,43.8426,102.726L42.384,105.0611L41.0,104.191C41.0022,104.1846,41.0064,104.1804,41.0107,104.174L40.9936,104.1654C40.9915,104.1697,40.9872,104.174,40.983,104.1804L40.8167,104.0759C40.5437,104.496,40.2686,104.9161,39.9999,105.3404L41.5865,106.3363L40.13,108.6691C39.8059,109.1916,39.9445,109.8697,40.4435,110.181L105.6188,149.2196C106.1135,149.5352,106.7831,149.3668,107.1093,148.8443L107.7213,147.8655L109.052,148.6993L109.0669,148.7121C109.3441,148.2899,109.6234,147.8719,109.9028,147.454L109.8836,147.4433L108.521,146.5861M113.7859,138.9562L114.4662,138.0307C114.833,137.5317,114.7391,136.8451,114.2679,136.4996L54.0824,90.1297C53.6069,89.7779,52.9288,89.8951,52.5642,90.392L50.935,92.6119L49.6171,91.6395C49.6214,91.6352,49.6257,91.6309,49.6299,91.6267L49.615,91.616C49.6108,91.6181,49.6086,91.6245,49.6022,91.6288L49.4444,91.5115C49.1395,91.9124,48.8367,92.3091,48.536,92.7121L50.0436,93.8252L48.4187,96.0408C48.0541,96.5398,48.1436,97.2222,48.617,97.5719L110.6961,141.3658C111.1673,141.7177,111.8476,141.5983,112.2101,141.1036L112.8946,140.1738L114.1591,141.1057L114.174,141.1163C114.4811,140.7176,114.7903,140.321,115.1038,139.9265L115.0824,139.9137L113.7859,138.9562M119.6053,131.7421L120.3559,130.8678C120.7568,130.3966,120.7142,129.7078,120.2728,129.324L63.7146,78.5911C63.2668,78.2072,62.5823,78.2755,62.1814,78.7425L60.3901,80.8344L59.1491,79.7661C59.1555,79.7639,59.1597,79.7597,59.164,79.7533L59.1491,79.7426C59.1448,79.7469,59.1405,79.7511,59.1363,79.7554L58.987,79.6253C58.6522,80.0028,58.3217,80.3781,57.989,80.7576L59.4114,81.9774L57.6265,84.065C57.2256,84.5342,57.264,85.2251,57.7097,85.6089L116.347,133.913C116.7905,134.2989,117.4793,134.2307,117.878,133.7637L118.6287,132.8873L119.8207,133.9108L119.8335,133.9236C120.1704,133.5483,120.5095,133.1751,120.8464,132.8062L120.8293,132.7913L119.6053,131.7421M125.9493,124.9802L126.7617,124.1656C127.1989,123.7263,127.2095,123.0354,126.7937,122.6217L74.1826,67.8095C73.7625,67.3915,73.0759,67.4086,72.6409,67.8457L70.7004,69.7969L69.5425,68.6411C69.5467,68.6368,69.551,68.6326,69.5553,68.6262L69.5425,68.6155C69.5382,68.6198,69.534,68.6241,69.5297,68.6262L69.3889,68.4876C69.0286,68.8373,68.6682,69.187,68.3099,69.541L69.6363,70.8631L67.6979,72.8122C67.2651,73.2514,67.2501,73.9402,67.6681,74.356L122.5353,126.9015C122.9489,127.3195,123.6399,127.3045,124.0749,126.8674L124.8873,126.0485L125.9983,127.1595L126.0111,127.1723C126.3757,126.8226,126.7404,126.4793,127.1072,126.136L127.0901,126.1168L125.9493,124.9802M97.3791,48.7305C97.0251,48.255,96.3427,48.1676,95.848,48.5343L93.6367,50.1763L92.6643,48.8627C92.6707,48.8585,92.675,48.8542,92.6814,48.8499L92.6707,48.8371C92.6643,48.8393,92.66,48.8435,92.6558,48.8478L92.5385,48.6879C92.1291,48.98,91.7197,49.2722,91.3124,49.5664L92.4297,51.0719L90.2227,52.7139C89.728,53.0807,89.6107,53.7609,89.9604,54.2343L136.3981,114.3628C136.7457,114.8383,137.4302,114.9257,137.9228,114.5568L138.8504,113.868L139.7844,115.1326L139.7951,115.1475C140.2066,114.8553,140.6182,114.5675,141.0319,114.2839L141.0191,114.2647L140.0595,112.9703L140.9849,112.2836C141.4797,111.9147,141.5927,111.2323,141.243,110.7611L97.3791,48.7305M109.9774,40.542C109.664,40.043,108.988,39.9044,108.4698,40.2327L106.1412,41.7063L105.2691,40.3202C105.2755,40.318,105.2818,40.3159,105.2861,40.3116L105.2755,40.2967C105.2712,40.301,105.2669,40.301,105.2605,40.3052L105.156,40.1389C104.7274,40.3991,104.2988,40.6592,103.8702,40.9258L104.8682,42.5102L102.546,43.9794C102.0256,44.31,101.8593,44.9817,102.1728,45.4785L143.9938,108.9037C144.3051,109.4048,144.9811,109.5434,145.5014,109.2129L146.4781,108.5966L147.314,109.9251L147.3225,109.9422C147.7554,109.6821,148.1883,109.4262,148.6211,109.1724L148.6084,109.1511L147.749,107.7906L148.7214,107.1722C149.2438,106.8438,149.408,106.1721,149.0967,105.6752L109.9774,40.542M123.1558,33.3172C122.8764,32.7948,122.2154,32.6071,121.6738,32.8972L119.2428,34.1915L118.4751,32.7458C118.4815,32.7436,118.4879,32.7394,118.4922,32.7372L118.4837,32.718C118.4773,32.7223,118.473,32.7244,118.4666,32.7287L118.3749,32.5538C117.9271,32.782,117.4793,33.0102,117.0336,33.2426L117.9122,34.8974L115.4855,36.1896C114.9438,36.4818,114.7242,37.1364,115.0014,37.6568L151.9712,104.0268C152.242,104.5471,152.9094,104.7369,153.4511,104.4448L154.4704,103.901L155.2061,105.2914L155.2146,105.3084C155.6624,105.0802,156.1145,104.8585,156.5665,104.6388L156.5559,104.6175L155.801,103.1952L156.816,102.6535C157.3619,102.3614,157.5752,101.7067,157.3001,101.1885L123.1558,33.3172M136.8353,27.0948C136.5986,26.5531,135.9482,26.3186,135.3873,26.5659L132.8668,27.6748L132.21,26.1757C132.2186,26.1736,132.2228,26.1714,132.2271,26.1672L132.2207,26.1501C132.2143,26.1522,132.21,26.1565,132.2036,26.1586L132.1247,25.9753C131.662,26.1714,131.1993,26.3655,130.7365,26.5617L131.4872,28.2804L128.973,29.3872C128.4079,29.6367,128.1435,30.2743,128.3781,30.8138L160.294,99.7577C160.5264,100.2972,161.1747,100.5339,161.7377,100.2865L162.7953,99.8216L163.4223,101.2589L163.4308,101.276C163.8978,101.0841,164.3627,100.8964,164.8275,100.7109L164.819,100.6896L164.1729,99.2118L165.2263,98.749C165.7914,98.4995,166.0537,97.8598,165.8191,97.3224L136.8353,27.0948M150.9391,21.913C150.7429,21.3543,150.116,21.0728,149.536,21.2775L146.9387,22.1944L146.397,20.6505C146.4034,20.6484,146.4098,20.6463,146.4162,20.6442L146.4098,20.6292C146.4034,20.6292,146.397,20.6314,146.3906,20.6335L146.3267,20.448C145.849,20.6058,145.3756,20.7657,144.8979,20.9278L145.5206,22.6956L142.9297,23.6125C142.3476,23.8194,142.0341,24.4356,142.2303,24.9901L168.909,96.124C169.103,96.6806,169.73,96.9642,170.3121,96.7595L171.3997,96.3735L171.92,97.8555L171.9264,97.8747C172.404,97.7169,172.8838,97.5634,173.3636,97.412L173.3551,97.3907L172.8199,95.8702L173.9053,95.4864C174.4874,95.2796,174.7966,94.6611,174.6026,94.111L150.9391,21.913M165.3926,17.7952C165.2391,17.2259,164.6335,16.8953,164.0407,17.0574L161.3837,17.7782L160.9572,16.198C160.9657,16.198,160.97,16.198,160.9764,16.1959L160.97,16.1767C160.9657,16.1788,160.9593,16.181,160.9529,16.181L160.9017,15.989C160.4134,16.1148,159.9272,16.2385,159.441,16.3643L159.9294,18.1748L157.2766,18.8956C156.6838,19.0576,156.3256,19.6483,156.4791,20.2155L177.7756,93.1428C177.9249,93.7101,178.5305,94.0427,179.1254,93.8807L180.2385,93.5779L180.648,95.094L180.6522,95.1111C181.1405,94.9917,181.631,94.8744,182.1172,94.7571L182.1129,94.7379L181.6929,93.1812L182.8038,92.8784C183.3988,92.7164,183.7528,92.1235,183.6014,91.5584L165.3926,17.7952M180.1127,14.7693C180.0018,14.1893,179.424,13.8161,178.8205,13.9334L176.1144,14.4558L175.8074,12.848C175.8138,12.8458,175.8202,12.8458,175.8287,12.8437L175.8244,12.8266C175.818,12.8266,175.8116,12.8288,175.8052,12.8288L175.769,12.6347C175.2721,12.72,174.7796,12.8074,174.2848,12.897L174.6367,14.7373L171.937,15.2597C171.3336,15.377,170.9348,15.94,171.0435,16.52L186.8362,90.8292C186.945,91.407,187.525,91.7845,188.1285,91.6672L189.2629,91.4497L189.5551,92.9914L189.5593,93.0128C190.0562,92.9275,190.5531,92.8464,191.0478,92.7675L191.0435,92.7462L190.7428,91.1639L191.8709,90.9443C192.4765,90.827,192.8753,90.2619,192.7665,89.6862L180.1127,14.7693M195.0183,12.8501C194.9501,12.2637,194.3999,11.8478,193.7901,11.9182L191.0542,12.2359L190.8687,10.611C190.875,10.611,190.8814,10.611,190.8878,10.611L190.8857,10.5918C190.8793,10.5918,190.875,10.594,190.8665,10.594L190.8452,10.3978C190.3441,10.4468,189.8451,10.4959,189.344,10.547L189.5593,12.4108L186.8298,12.7307C186.2178,12.801,185.7764,13.332,185.8447,13.9184L196.0483,89.2C196.1101,89.7843,196.6603,90.2043,197.2744,90.134L198.4196,89.9975L198.5987,91.5584L198.6008,91.5798C199.1041,91.5329,199.603,91.4881,200.1042,91.4476L200.102,91.4262L199.9165,89.8248L201.0616,89.6926C201.6736,89.6201,202.1129,89.0869,202.0468,88.5048L195.0183,12.8501M210.022,12.0504C210.0007,11.4576,209.4847,11.0034,208.8684,11.029L206.1176,11.142L206.0536,9.5085C206.06,9.5085,206.0664,9.5085,206.0728,9.5064L206.0707,9.4894C206.0664,9.4894,206.06,9.4894,206.0536,9.4894L206.0451,9.291C205.5418,9.3038,205.0407,9.3166,204.5375,9.3294L204.6121,11.206L201.8656,11.3169C201.2493,11.3446,200.7716,11.8414,200.7951,12.43L205.3521,88.2638C205.3712,88.8524,205.8894,89.3087,206.5036,89.2831L207.6551,89.2362L207.719,90.8078L207.719,90.827C208.2223,90.8185,208.7255,90.81,209.2267,90.8078L209.2267,90.7844L209.1627,89.1765L210.3121,89.1296C210.9305,89.1019,211.4081,88.6029,211.3847,88.0165L210.022,12.0504M133.7966,116.4227L85.4226,57.836C85.0366,57.3882,84.35,57.352,83.883,57.755L81.8018,59.5591L80.7355,58.318C80.7398,58.3158,80.7441,58.3094,80.7505,58.3073L80.7377,58.2924C80.7313,58.2966,80.727,58.3009,80.7228,58.3052L80.5948,58.1538C80.2067,58.4779,79.8229,58.7978,79.439,59.124L80.6652,60.5421L78.5861,62.3419C78.1191,62.7449,78.0551,63.4337,78.4389,63.8772L129.2353,120.3741C129.617,120.8219,130.3058,120.856,130.7707,120.453L131.6428,119.6981L132.6685,120.888L132.6813,120.903C133.0694,120.5831,133.4575,120.2654,133.8499,119.9498L133.8349,119.9327L132.7815,118.7129L133.6537,117.9581C134.1186,117.555,134.1804,116.8662,133.7966,116.4227Z"/>
</svg>