<svg version="1.2" baseProfile="tiny" viewBox="0 0 64.438 30.301" xmlns:xlink="http://www.w3.org/1999/xlink" xmlns="http://www.w3.org/2000/svg">
<path style="fill:#ffffff;" d="M58.2687,26.5779L10.3687,4.5551L10.2759,3.9919C9.7218,1.7081,7.672,0.0,5.2188,0.0C2.341,0.0,0.0,2.3411,0.0,5.219C0.0,8.097,2.341,10.4381,5.2188,10.4381C7.509,10.4381,9.4369,8.9461,10.138,6.892L44.8669,30.1331C45.0331,30.244,45.2271,30.3019,45.4243,30.3019C45.4971,30.3019,45.5712,30.294,45.6453,30.278C45.9127,30.2171,46.1441,30.0489,46.2852,29.8129L49.337,24.6729L57.4342,28.3969C57.5702,28.459,57.7113,28.489,57.8512,28.489C58.23,28.489,58.5922,28.273,58.7597,27.906C58.9898,27.4021,58.7707,26.8091,58.2687,26.5779M5.2188,8.4379C3.4442,8.4379,2.0002,6.9941,2.0002,5.219C2.0002,3.444,3.4442,1.9999,5.2188,1.9999C6.9941,1.9999,8.4382,3.444,8.4382,5.219C8.4382,6.9941,6.9928,8.4379,5.2188,8.4379M45.1027,27.883L20.45,11.385L47.5082,23.8299L45.1027,27.883M64.3433,4.2821C64.3272,4.1961,64.3072,4.1121,64.2859,4.027C64.2318,3.8,64.1628,3.5801,64.081,3.3649C64.0501,3.2861,64.0243,3.2031,63.9902,3.1259C63.878,2.8719,63.7453,2.6301,63.5958,2.4001C63.5243,2.2889,63.4399,2.1871,63.36,2.082C63.271,1.9659,63.1782,1.8529,63.0809,1.7441C62.972,1.6241,62.8593,1.506,62.7388,1.396C62.6692,1.3311,62.5919,1.2739,62.5171,1.2129C62.249,0.9939,61.9597,0.7999,61.653,0.636C61.6002,0.6069,61.5499,0.5769,61.4958,0.55C60.8063,0.2121,60.0388,0.0052,59.2198,0.0052C58.1398,0.0052,57.1359,0.3351,56.3021,0.899C56.1629,0.993,56.0443,1.112,55.9148,1.2181C55.6899,1.4029,55.4831,1.606,55.2923,1.825C55.224,1.9029,55.157,1.982,55.0951,2.0641C54.9901,2.1989,54.8909,2.3359,54.8,2.4801C54.686,2.6629,54.5809,2.8531,54.4901,3.0501C54.4482,3.138,54.4089,3.228,54.3728,3.3189C54.2723,3.5749,54.1859,3.8379,54.1273,4.1109C54.1137,4.1661,54.1073,4.2221,54.097,4.2779C54.0403,4.5851,54.001,4.8991,54.001,5.2221C54.001,5.5439,54.0403,5.856,54.097,6.1611C54.1131,6.2469,54.1331,6.332,54.1537,6.4159C54.2078,6.6429,54.2768,6.8629,54.3593,7.078C54.3902,7.158,54.416,7.2401,54.4501,7.3171C54.5622,7.5701,54.695,7.8119,54.8451,8.0431C54.916,8.154,54.9998,8.2561,55.0803,8.361C55.1692,8.4779,55.262,8.5909,55.3587,8.6991C55.4682,8.8191,55.581,8.9379,55.7009,9.047C55.7711,9.1121,55.8478,9.1691,55.9232,9.23C56.1912,9.4491,56.4799,9.643,56.7873,9.8069C56.8401,9.8351,56.8897,9.866,56.9432,9.8921C57.6327,10.2299,58.4002,10.4369,59.2192,10.4369C60.2991,10.4369,61.3031,10.1069,62.1369,9.543C62.2761,9.4491,62.3953,9.33,62.5242,9.223C62.7491,9.0379,62.9559,8.8349,63.1473,8.617C63.215,8.5379,63.282,8.46,63.3438,8.377C63.4482,8.244,63.5468,8.1061,63.6377,7.9631C63.7517,7.7789,63.8581,7.5889,63.9489,7.391C63.9908,7.3031,64.0301,7.2141,64.0662,7.1229C64.1667,6.868,64.2531,6.6041,64.3117,6.3311C64.3252,6.2769,64.3323,6.2211,64.342,6.165C64.3987,5.8569,64.438,5.5439,64.438,5.22C64.438,4.9,64.3987,4.5879,64.3433,4.2821M62.4378,5.2209C62.4378,5.2221,62.4378,5.223,62.4378,5.2239C62.4378,6.9989,60.9938,8.4431,59.2192,8.4431C57.4439,8.4431,55.9998,6.9989,55.9998,5.2239C55.9998,5.223,55.9998,5.2221,55.9998,5.2209C55.9998,5.2209,55.9998,5.22,55.9998,5.219C56.0011,3.444,57.4452,1.9999,59.2198,1.9999C60.9951,1.9999,62.4391,3.444,62.4391,5.219C62.4378,5.22,62.4378,5.2209,62.4378,5.2209Z"/>
</svg>