<svg version="1.2" baseProfile="tiny" viewBox="0 0 122.871 13.71" xmlns:xlink="http://www.w3.org/1999/xlink" xmlns="http://www.w3.org/2000/svg">
<path style="fill:#ffffff;" d="M10.5571,1.915C10.5571,1.915,11.4725,3.207,11.4725,6.813C11.4725,10.421,10.5571,11.714,10.5571,11.714L10.0361,11.714L9.5139,11.714L9.5139,11.714C9.5139,11.714,9.02,11.005,8.7582,9.199L8.7582,9.199L8.0923,9.375L8.0923,12.709L8.0923,12.709L3.3544,12.709L3.3544,12.709L1.1734,12.709L1.1734,12.709L1.1734,1.125L3.3544,1.125L8.0923,1.125L8.0923,4.46L8.7521,4.46C9.0126,2.629,9.5139,1.915,9.5139,1.915L10.0349,1.915L10.5571,1.915L10.5571,1.915M117.7964,1.933L117.3578,1.933L117.3578,1.0L115.774,1.0L115.774,1.933L114.9077,1.933L114.9077,1.0L113.3239,1.0L113.3239,1.933L111.7266,1.933L111.7266,1.9339L111.7266,11.733L111.7266,11.734L113.3239,11.734L113.3239,12.6669L114.9077,12.6669L114.9077,11.734L115.774,11.734L115.774,12.6669L117.3578,12.6669L117.3578,11.734L117.7964,11.734C117.8013,11.734,117.8075,11.7321,117.8124,11.7321C118.2351,11.7321,118.4894,11.692,118.6823,11.642C120.7933,11.21,121.8708,9.2281,121.8708,6.835L121.8708,6.8331L121.8708,6.8331C121.8708,4.123,120.4947,1.933,117.7964,1.933Z"/>
</svg>