<svg version="1.2" baseProfile="tiny" id="EdgeSVG_z2hnf" x="0px" y="0px" width="122.871px" height="13.71px" viewBox="0 0 122.871 13.71" xmlns:xlink="http://www.w3.org/1999/xlink" xmlns="http://www.w3.org/2000/svg">
  <linearGradient id="SVGID_1_" gradientUnits="userSpaceOnUse" x1="0" y1="6.855" x2="122.8711" y2="6.855">
    <stop offset="0" style="stop-color:#231F20;stop-opacity:0.5"/>
    <stop offset="0.066" style="stop-color:#201D1E;stop-opacity:0.5"/>
    <stop offset="1" style="stop-color:#000000;stop-opacity:0.5"/>
  </linearGradient>
  <path fill="url(#SVGID_1_)" d="M11.372,1.336c0.112,0.159,1.101,1.661,1.101,5.477c0,3.816-0.987,5.32-1.1,5.479l-0.3,0.422H9.092&#xD;&#xA;&#x9;&#x9;v0.996H0V0h9.092v0.915h1.981L11.372,1.336z M118.359,0.961V0h-6.035v0.934l-1.598,0v11.799h1.598v0.933h6.035v-0.958&#xD;&#xA;&#x9;&#x9;c0.202-0.018,0.375-0.047,0.524-0.087c2.46-0.503,3.988-2.721,3.988-5.788C122.871,3.526,121.081,1.236,118.359,0.961z"/>
</svg>