<svg version="1.2" baseProfile="tiny" id="EdgeSVG_z2hnf" x="0px" y="0px" width="122.871px" height="13.71px" viewBox="0 0 122.871 13.71" xmlns:xlink="http://www.w3.org/1999/xlink" xmlns="http://www.w3.org/2000/svg">
  <g id="Layer_4"/>
  <g>
    <linearGradient id="SVGID_3_" gradientUnits="userSpaceOnUse" x1="2.2632" y1="1.1255" x2="2.2632" y2="12.71">
      <stop offset="0" style="stop-color:#FFFFFF;stop-opacity:0.4"/>
      <stop offset="0.1104" style="stop-color:#FFFFFF;stop-opacity:0.05"/>
      <stop offset="0.2025" style="stop-color:#FFFFFF;stop-opacity:0.25"/>
      <stop offset="0.2608" style="stop-color:#F6F6F6;stop-opacity:0.2627"/>
      <stop offset="0.356" style="stop-color:#DEDEDE;stop-opacity:0.2835"/>
      <stop offset="0.4763" style="stop-color:#B6B6B6;stop-opacity:0.3098"/>
      <stop offset="0.6169" style="stop-color:#7F7F7F;stop-opacity:0.3405"/>
      <stop offset="0.7726" style="stop-color:#393939;stop-opacity:0.3745"/>
      <stop offset="0.8896" style="stop-color:#000000;stop-opacity:0.4"/>
      <stop offset="1" style="stop-color:#000000;stop-opacity:0.3"/>
    </linearGradient>
    <rect x="1.173" y="1.125" fill="url(#SVGID_3_)" width="2.181" height="11.584"/>
    <linearGradient id="SVGID_4_" gradientUnits="userSpaceOnUse" x1="5.7227" y1="1.1255" x2="5.7227" y2="12.71">
      <stop offset="0" style="stop-color:#FFFFFF;stop-opacity:0.4"/>
      <stop offset="0.1104" style="stop-color:#FFFFFF;stop-opacity:0.05"/>
      <stop offset="0.2025" style="stop-color:#FFFFFF;stop-opacity:0.25"/>
      <stop offset="0.2608" style="stop-color:#F6F6F6;stop-opacity:0.2627"/>
      <stop offset="0.356" style="stop-color:#DEDEDE;stop-opacity:0.2835"/>
      <stop offset="0.4763" style="stop-color:#B6B6B6;stop-opacity:0.3098"/>
      <stop offset="0.6169" style="stop-color:#7F7F7F;stop-opacity:0.3405"/>
      <stop offset="0.7726" style="stop-color:#393939;stop-opacity:0.3745"/>
      <stop offset="0.8896" style="stop-color:#000000;stop-opacity:0.4"/>
      <stop offset="1" style="stop-color:#000000;stop-opacity:0.3"/>
    </linearGradient>
    <rect x="3.354" y="1.125" fill="url(#SVGID_4_)" width="4.738" height="11.584"/>
  </g>
  <path fill="#F1F1F2" d="M10.557,11.714h-0.521V1.915h0.521c0,0,0.916,1.292,0.916,4.898C11.473,10.421,10.557,11.714,10.557,11.714&#xD;&#xA;&#x9;&#x9;z"/>
  <linearGradient id="SVGID_5_" gradientUnits="userSpaceOnUse" x1="10.2354" y1="6.813" x2="11.2729" y2="6.813">
    <stop offset="0" style="stop-color:#231F20;stop-opacity:0"/>
    <stop offset="0.066" style="stop-color:#201D1E;stop-opacity:0.0066"/>
    <stop offset="1" style="stop-color:#000000;stop-opacity:0.1"/>
  </linearGradient>
  <path fill="url(#SVGID_5_)" d="M10.235,11.512V2.114h0.208c0.188,0.338,0.83,1.713,0.83,4.699c0,2.987-0.642,4.363-0.83,4.699&#xD;&#xA;&#x9;&#x9;H10.235z"/>
  <linearGradient id="SVGID_6_" gradientUnits="userSpaceOnUse" x1="10.6509" y1="11.2373" x2="10.6509" y2="2.4912">
    <stop offset="0" style="stop-color:#231F20;stop-opacity:0.05"/>
    <stop offset="0.066" style="stop-color:#201D1E;stop-opacity:0.0533"/>
    <stop offset="1" style="stop-color:#000000;stop-opacity:0.1"/>
  </linearGradient>
  <path fill="url(#SVGID_6_)" d="M10.235,2.491c0.187,0.314,0.831,1.594,0.831,4.373c0,2.78-0.645,4.059-0.831,4.374V2.491z"/>
  <linearGradient id="SVGID_7_" gradientUnits="userSpaceOnUse" x1="10.2959" y1="1.9146" x2="10.2959" y2="11.7139">
    <stop offset="0" style="stop-color:#FFFFFF;stop-opacity:0.2"/>
    <stop offset="0.1902" style="stop-color:#000000;stop-opacity:0.1"/>
    <stop offset="0.2451" style="stop-color:#343434;stop-opacity:0.1172"/>
    <stop offset="0.3421" style="stop-color:#8A8A8A;stop-opacity:0.1476"/>
    <stop offset="0.4215" style="stop-color:#C9C9C9;stop-opacity:0.1725"/>
    <stop offset="0.4792" style="stop-color:#F0F0F0;stop-opacity:0.1906"/>
    <stop offset="0.5092" style="stop-color:#FFFFFF;stop-opacity:0.2"/>
    <stop offset="0.5856" style="stop-color:#DBDBDB;stop-opacity:0.2162"/>
    <stop offset="0.7559" style="stop-color:#818181;stop-opacity:0.2522"/>
    <stop offset="0.9816" style="stop-color:#000000;stop-opacity:0.3"/>
  </linearGradient>
  <rect x="10.035" y="1.915" fill="url(#SVGID_7_)" width="0.521" height="9.799"/>
  <linearGradient id="SVGID_8_" gradientUnits="userSpaceOnUse" x1="11.0146" y1="1.9146" x2="11.0146" y2="11.7139">
    <stop offset="0" style="stop-color:#FFFFFF;stop-opacity:0.35"/>
    <stop offset="0.3825" style="stop-color:#FDFDFD;stop-opacity:0.2926"/>
    <stop offset="0.5203" style="stop-color:#F6F6F6;stop-opacity:0.272"/>
    <stop offset="0.6185" style="stop-color:#EBEAEB;stop-opacity:0.2572"/>
    <stop offset="0.6979" style="stop-color:#DADADA;stop-opacity:0.2453"/>
    <stop offset="0.766" style="stop-color:#C5C4C4;stop-opacity:0.2351"/>
    <stop offset="0.8262" style="stop-color:#AAA8A9;stop-opacity:0.2261"/>
    <stop offset="0.8807" style="stop-color:#8A8888;stop-opacity:0.2179"/>
    <stop offset="0.9308" style="stop-color:#656263;stop-opacity:0.2104"/>
    <stop offset="0.9754" style="stop-color:#3D393A;stop-opacity:0.2037"/>
    <stop offset="1" style="stop-color:#231F20;stop-opacity:0.2"/>
  </linearGradient>
  <path fill="url(#SVGID_8_)" d="M10.557,11.714V1.915c0,0,0.916,1.292,0.916,4.898C11.473,10.421,10.557,11.714,10.557,11.714z"/>
  <linearGradient id="SVGID_9_" gradientUnits="userSpaceOnUse" x1="8.4248" y1="4.46" x2="8.4248" y2="9.3755">
    <stop offset="0" style="stop-color:#231F20;stop-opacity:0"/>
    <stop offset="0.066" style="stop-color:#201D1E;stop-opacity:0.0066"/>
    <stop offset="1" style="stop-color:#000000;stop-opacity:0.1"/>
  </linearGradient>
  <path fill="url(#SVGID_9_)" d="M8.598,6.813c0-0.937,0.063-1.71,0.154-2.353h-0.66v4.916h0.666V9.198&#xD;&#xA;&#x9;&#x9;C8.664,8.549,8.598,7.766,8.598,6.813z"/>
  <linearGradient id="SVGID_10_" gradientUnits="userSpaceOnUse" x1="8.4248" y1="4.46" x2="8.4248" y2="9.3755">
    <stop offset="0" style="stop-color:#FFFFFF;stop-opacity:0.4"/>
    <stop offset="0.2393" style="stop-color:#FFFFFF;stop-opacity:0.05"/>
    <stop offset="0.4601" style="stop-color:#FFFFFF;stop-opacity:0.25"/>
    <stop offset="0.4883" style="stop-color:#D7D7D7;stop-opacity:0.26"/>
    <stop offset="0.5287" style="stop-color:#A5A5A5;stop-opacity:0.2743"/>
    <stop offset="0.571" style="stop-color:#797979;stop-opacity:0.2893"/>
    <stop offset="0.6147" style="stop-color:#545454;stop-opacity:0.3048"/>
    <stop offset="0.66" style="stop-color:#353535;stop-opacity:0.3208"/>
    <stop offset="0.7073" style="stop-color:#1E1E1E;stop-opacity:0.3376"/>
    <stop offset="0.7577" style="stop-color:#0D0D0D;stop-opacity:0.3554"/>
    <stop offset="0.8131" style="stop-color:#030303;stop-opacity:0.3751"/>
    <stop offset="0.8834" style="stop-color:#000000;stop-opacity:0.4"/>
    <stop offset="1" style="stop-color:#000000;stop-opacity:0.3"/>
  </linearGradient>
  <path fill="url(#SVGID_10_)" d="M8.598,6.813c0-0.937,0.063-1.71,0.154-2.353h-0.66v4.916h0.666V9.198&#xD;&#xA;&#x9;&#x9;C8.664,8.549,8.598,7.766,8.598,6.813z"/>
  <linearGradient id="SVGID_11_" gradientUnits="userSpaceOnUse" x1="8.5977" y1="6.8135" x2="9.5137" y2="6.8135">
    <stop offset="0" style="stop-color:#231F20;stop-opacity:0.25"/>
    <stop offset="0.9816" style="stop-color:#231F20;stop-opacity:0.45"/>
  </linearGradient>
  <path fill="url(#SVGID_11_)" d="M9.514,11.713V1.914c0,0-0.916,1.291-0.916,4.898S9.514,11.713,9.514,11.713z"/>
  <linearGradient id="SVGID_12_" gradientUnits="userSpaceOnUse" x1="9.7744" y1="1.9146" x2="9.7744" y2="11.7139">
    <stop offset="0" style="stop-color:#FFFFFF;stop-opacity:0.4"/>
    <stop offset="0.2393" style="stop-color:#FFFFFF;stop-opacity:0.05"/>
    <stop offset="0.4601" style="stop-color:#FFFFFF;stop-opacity:0.25"/>
    <stop offset="0.4883" style="stop-color:#D7D7D7;stop-opacity:0.26"/>
    <stop offset="0.5287" style="stop-color:#A5A5A5;stop-opacity:0.2743"/>
    <stop offset="0.571" style="stop-color:#797979;stop-opacity:0.2893"/>
    <stop offset="0.6147" style="stop-color:#545454;stop-opacity:0.3048"/>
    <stop offset="0.66" style="stop-color:#353535;stop-opacity:0.3208"/>
    <stop offset="0.7073" style="stop-color:#1E1E1E;stop-opacity:0.3376"/>
    <stop offset="0.7577" style="stop-color:#0D0D0D;stop-opacity:0.3554"/>
    <stop offset="0.8131" style="stop-color:#030303;stop-opacity:0.3751"/>
    <stop offset="0.8834" style="stop-color:#000000;stop-opacity:0.4"/>
    <stop offset="1" style="stop-color:#000000;stop-opacity:0.3"/>
  </linearGradient>
  <rect x="9.514" y="1.915" fill="url(#SVGID_12_)" width="0.521" height="9.799"/>
  <linearGradient id="SVGID_13_" gradientUnits="userSpaceOnUse" x1="9.8936" y1="1.9063" x2="9.8936" y2="11.7036">
    <stop offset="0" style="stop-color:#FFFFFF;stop-opacity:0.1"/>
    <stop offset="1" style="stop-color:#FFFFFF;stop-opacity:0.05"/>
  </linearGradient>
  <rect x="9.822" y="1.906" fill="url(#SVGID_13_)" width="0.143" height="9.797"/>
  <rect x="9.965" y="1.906" fill="#404041" width="0.15" height="9.797"/>
  <rect x="3.354" y="1.125" fill="#404041" width="0.146" height="11.578"/>
  <g>
    <linearGradient id="SVGID_14_" gradientUnits="userSpaceOnUse" x1="3.207" y1="6.9146" x2="3.3496" y2="6.9146">
      <stop offset="0" style="stop-color:#FFFFFF;stop-opacity:0.1"/>
      <stop offset="1" style="stop-color:#FFFFFF;stop-opacity:0.05"/>
    </linearGradient>
    <rect x="3.207" y="1.125" fill="url(#SVGID_14_)" width="0.143" height="11.578"/>
    <linearGradient id="SVGID_15_" gradientUnits="userSpaceOnUse" x1="7.9492" y1="6.9146" x2="8.0918" y2="6.9146">
      <stop offset="0" style="stop-color:#FFFFFF;stop-opacity:0.1"/>
      <stop offset="1" style="stop-color:#FFFFFF;stop-opacity:0.05"/>
    </linearGradient>
    <rect x="7.949" y="1.125" fill="url(#SVGID_15_)" width="0.143" height="11.578"/>
  </g>
  <g>
    <linearGradient id="SVGID_16_" gradientUnits="userSpaceOnUse" x1="3.5" y1="6.9146" x2="3.6504" y2="6.9146">
      <stop offset="0" style="stop-color:#231F20;stop-opacity:0.15"/>
      <stop offset="0.066" style="stop-color:#201D1E;stop-opacity:0.1566"/>
      <stop offset="1" style="stop-color:#000000;stop-opacity:0.25"/>
    </linearGradient>
    <rect x="3.5" y="1.125" fill="url(#SVGID_16_)" width="0.15" height="11.578"/>
    <linearGradient id="SVGID_17_" gradientUnits="userSpaceOnUse" x1="1.1729" y1="6.9146" x2="1.3228" y2="6.9146">
      <stop offset="0" style="stop-color:#231F20;stop-opacity:0.15"/>
      <stop offset="0.066" style="stop-color:#201D1E;stop-opacity:0.1566"/>
      <stop offset="1" style="stop-color:#000000;stop-opacity:0.25"/>
    </linearGradient>
    <rect x="1.173" y="1.125" fill="url(#SVGID_17_)" width="0.15" height="11.578"/>
  </g>
  <linearGradient id="SVGID_18_" gradientUnits="userSpaceOnUse" x1="8.0918" y1="6.9175" x2="8.7822" y2="6.9175">
    <stop offset="0" style="stop-color:#000000;stop-opacity:0.45"/>
    <stop offset="0.9816" style="stop-color:#000000;stop-opacity:0.45"/>
  </linearGradient>
  <path fill="url(#SVGID_18_)" d="M8.092,4.46v0.484c0,0,0.333,0.679,0.333,1.86S8.092,8.778,8.092,8.778v0.598h0.69&#xD;&#xA;&#x9;&#x9;c0,0-0.314-2.391-0.03-4.916H8.092z"/>
  <linearGradient id="SVGID_19_" gradientUnits="userSpaceOnUse" x1="111.7261" y1="6.8335" x2="117.7964" y2="6.8335">
    <stop offset="0" style="stop-color:#231F20;stop-opacity:0.1"/>
    <stop offset="0.066" style="stop-color:#201D1E;stop-opacity:0.1033"/>
    <stop offset="1" style="stop-color:#000000;stop-opacity:0.15"/>
  </linearGradient>
  <path fill="url(#SVGID_19_)" d="M113.324,11.733h-1.598v-9.8h1.598V11.733z M115.774,1.934h-0.866v9.8h0.866V1.934z M117.359,1.934&#xD;&#xA;&#x9;&#x9;v9.8h0.438v-9.8H117.359z"/>
  <linearGradient id="SVGID_20_" gradientUnits="userSpaceOnUse" x1="117.7964" y1="6.8335" x2="121.8711" y2="6.8335">
    <stop offset="0" style="stop-color:#000000;stop-opacity:0.15"/>
    <stop offset="1" style="stop-color:#231F20;stop-opacity:0.1"/>
  </linearGradient>
  <path fill="url(#SVGID_20_)" d="M121.871,6.834c0,2.709-1.376,4.899-4.075,4.899v-9.8C120.495,1.934,121.871,4.123,121.871,6.834z"/>
  <g>
    <linearGradient id="SVGID_21_" gradientUnits="userSpaceOnUse" x1="114.7612" y1="1.9326" x2="114.7612" y2="11.7324">
      <stop offset="0" style="stop-color:#FFFFFF;stop-opacity:0.4"/>
      <stop offset="0.2393" style="stop-color:#FFFFFF;stop-opacity:0.05"/>
      <stop offset="0.4601" style="stop-color:#FFFFFF;stop-opacity:0.25"/>
      <stop offset="0.4883" style="stop-color:#D7D7D7;stop-opacity:0.26"/>
      <stop offset="0.5287" style="stop-color:#A5A5A5;stop-opacity:0.2743"/>
      <stop offset="0.571" style="stop-color:#797979;stop-opacity:0.2893"/>
      <stop offset="0.6147" style="stop-color:#545454;stop-opacity:0.3048"/>
      <stop offset="0.66" style="stop-color:#353535;stop-opacity:0.3208"/>
      <stop offset="0.7073" style="stop-color:#1E1E1E;stop-opacity:0.3376"/>
      <stop offset="0.7577" style="stop-color:#0D0D0D;stop-opacity:0.3554"/>
      <stop offset="0.8131" style="stop-color:#030303;stop-opacity:0.3751"/>
      <stop offset="0.8834" style="stop-color:#000000;stop-opacity:0.4"/>
      <stop offset="1" style="stop-color:#000000;stop-opacity:0.3"/>
    </linearGradient>
    <path fill="url(#SVGID_21_)" d="M113.324,11.732h-1.598v-9.8h1.598V11.732z M115.774,1.933h-0.866v9.8h0.866V1.933z&#xD;&#xA;&#x9;&#x9;&#x9; M117.359,1.933v9.8h0.438v-9.8H117.359z"/>
    <linearGradient id="SVGID_22_" gradientUnits="userSpaceOnUse" x1="119.8335" y1="1.9326" x2="119.8335" y2="11.7324">
      <stop offset="0" style="stop-color:#FFFFFF;stop-opacity:0.4"/>
      <stop offset="0.2393" style="stop-color:#FFFFFF;stop-opacity:0.05"/>
      <stop offset="0.4601" style="stop-color:#FFFFFF;stop-opacity:0.25"/>
      <stop offset="0.4883" style="stop-color:#D7D7D7;stop-opacity:0.26"/>
      <stop offset="0.5287" style="stop-color:#A5A5A5;stop-opacity:0.2743"/>
      <stop offset="0.571" style="stop-color:#797979;stop-opacity:0.2893"/>
      <stop offset="0.6147" style="stop-color:#545454;stop-opacity:0.3048"/>
      <stop offset="0.66" style="stop-color:#353535;stop-opacity:0.3208"/>
      <stop offset="0.7073" style="stop-color:#1E1E1E;stop-opacity:0.3376"/>
      <stop offset="0.7577" style="stop-color:#0D0D0D;stop-opacity:0.3554"/>
      <stop offset="0.8131" style="stop-color:#030303;stop-opacity:0.3751"/>
      <stop offset="0.8834" style="stop-color:#000000;stop-opacity:0.4"/>
      <stop offset="1" style="stop-color:#000000;stop-opacity:0.3"/>
    </linearGradient>
    <path fill="url(#SVGID_22_)" d="M121.871,6.832c0,2.711-1.376,4.9-4.075,4.9v-9.8C120.495,1.933,121.871,4.123,121.871,6.832z"/>
    <g>
      <linearGradient id="SVGID_23_" gradientUnits="userSpaceOnUse" x1="114.1162" y1="1" x2="114.1162" y2="12.666">
        <stop offset="0" style="stop-color:#FFFFFF;stop-opacity:0.4"/>
        <stop offset="0.2393" style="stop-color:#FFFFFF;stop-opacity:0.05"/>
        <stop offset="0.4601" style="stop-color:#FFFFFF;stop-opacity:0.25"/>
        <stop offset="0.4883" style="stop-color:#D7D7D7;stop-opacity:0.26"/>
        <stop offset="0.5287" style="stop-color:#A5A5A5;stop-opacity:0.2743"/>
        <stop offset="0.571" style="stop-color:#797979;stop-opacity:0.2893"/>
        <stop offset="0.6147" style="stop-color:#545454;stop-opacity:0.3048"/>
        <stop offset="0.66" style="stop-color:#353535;stop-opacity:0.3208"/>
        <stop offset="0.7073" style="stop-color:#1E1E1E;stop-opacity:0.3376"/>
        <stop offset="0.7577" style="stop-color:#0D0D0D;stop-opacity:0.3554"/>
        <stop offset="0.8131" style="stop-color:#030303;stop-opacity:0.3751"/>
        <stop offset="0.8834" style="stop-color:#000000;stop-opacity:0.4"/>
        <stop offset="1" style="stop-color:#000000;stop-opacity:0.3"/>
      </linearGradient>
      <rect x="113.324" y="1" fill="url(#SVGID_23_)" width="1.584" height="11.666"/>
      <linearGradient id="SVGID_24_" gradientUnits="userSpaceOnUse" x1="116.5669" y1="1" x2="116.5669" y2="12.666">
        <stop offset="0" style="stop-color:#FFFFFF;stop-opacity:0.4"/>
        <stop offset="0.2393" style="stop-color:#FFFFFF;stop-opacity:0.05"/>
        <stop offset="0.4601" style="stop-color:#FFFFFF;stop-opacity:0.25"/>
        <stop offset="0.4883" style="stop-color:#D7D7D7;stop-opacity:0.26"/>
        <stop offset="0.5287" style="stop-color:#A5A5A5;stop-opacity:0.2743"/>
        <stop offset="0.571" style="stop-color:#797979;stop-opacity:0.2893"/>
        <stop offset="0.6147" style="stop-color:#545454;stop-opacity:0.3048"/>
        <stop offset="0.66" style="stop-color:#353535;stop-opacity:0.3208"/>
        <stop offset="0.7073" style="stop-color:#1E1E1E;stop-opacity:0.3376"/>
        <stop offset="0.7577" style="stop-color:#0D0D0D;stop-opacity:0.3554"/>
        <stop offset="0.8131" style="stop-color:#030303;stop-opacity:0.3751"/>
        <stop offset="0.8834" style="stop-color:#000000;stop-opacity:0.4"/>
        <stop offset="1" style="stop-color:#000000;stop-opacity:0.3"/>
      </linearGradient>
      <rect x="115.774" y="1" fill="url(#SVGID_24_)" width="1.584" height="11.666"/>
    </g>
  </g>
  <linearGradient id="SVGID_25_" gradientUnits="userSpaceOnUse" x1="117.7964" y1="6.8325" x2="121.8711" y2="6.8325">
    <stop offset="0" style="stop-color:#231F20;stop-opacity:0"/>
    <stop offset="1" style="stop-color:#000000;stop-opacity:0.4"/>
  </linearGradient>
  <path fill="url(#SVGID_25_)" d="M121.871,6.832c0,2.711-1.376,4.9-4.075,4.9v-9.8C120.495,1.933,121.871,4.123,121.871,6.832z"/>
  <g>
    <linearGradient id="SVGID_26_" gradientUnits="userSpaceOnUse" x1="117.3589" y1="6.832" x2="119.0098" y2="6.832">
      <stop offset="0" style="stop-color:#000000;stop-opacity:0.45"/>
      <stop offset="0.9816" style="stop-color:#000000;stop-opacity:0.45"/>
    </linearGradient>
    <path fill="url(#SVGID_26_)" d="M117.949,6.832c0-3.992,1.061-4.703,1.061-4.703c-0.25-0.094-0.502-0.197-1.219-0.197&#xD;&#xA;&#x9;&#x9;&#x9;l-0.432,0.001l0.011,4.899l0.013,4.9h0.409c0.716,0,0.969-0.104,1.219-0.197C119.01,11.535,117.949,10.824,117.949,6.832z"/>
    <linearGradient id="SVGID_27_" gradientUnits="userSpaceOnUse" x1="114.9082" y1="6.832" x2="115.7744" y2="6.832">
      <stop offset="0" style="stop-color:#000000;stop-opacity:0.45"/>
      <stop offset="0.9816" style="stop-color:#000000;stop-opacity:0.45"/>
    </linearGradient>
    <path fill="url(#SVGID_27_)" d="M115.774,1.932h-0.866l0.002,4.9l-0.002,4.9h0.866v-4.9V1.932z M115.341,8.746&#xD;&#xA;&#x9;&#x9;&#x9;c0,0-0.105-0.921-0.105-1.914c0-0.993,0.105-1.914,0.105-1.914c0.038,0.147,0.104,0.932,0.104,1.914S115.379,8.598,115.341,8.746z&#xD;&#xA;&#x9;&#x9;&#x9;"/>
    <linearGradient id="SVGID_28_" gradientUnits="userSpaceOnUse" x1="112.0073" y1="6.832" x2="113.3242" y2="6.832">
      <stop offset="0" style="stop-color:#000000;stop-opacity:0.45"/>
      <stop offset="0.9816" style="stop-color:#000000;stop-opacity:0.45"/>
    </linearGradient>
    <path fill="url(#SVGID_28_)" d="M113.324,1.932h-0.072h-1.245c0.596,0.571,0.857,2.049,0.857,4.9s-0.261,4.329-0.857,4.9h1.245&#xD;&#xA;&#x9;&#x9;&#x9;h0.072v-4.9V1.932z"/>
  </g>
  <linearGradient id="SVGID_29_" gradientUnits="userSpaceOnUse" x1="117.6621" y1="5.0259" x2="121.376" y2="5.0259">
    <stop offset="0" style="stop-color:#FFFFFF;stop-opacity:0.05"/>
    <stop offset="0.3374" style="stop-color:#FFFFFF;stop-opacity:0.35"/>
    <stop offset="0.9816" style="stop-color:#FFFFFF;stop-opacity:0.05"/>
  </linearGradient>
  <path fill="url(#SVGID_29_)" d="M117.664,3.348c-0.062-0.243,1.751,0.018,2.411,0.612c1.255,1.129,1.464,2.833,1.203,2.833&#xD;&#xA;&#x9;&#x9;c-0.139,0-0.521-1.646-1.52-2.443C118.713,3.516,117.7,3.497,117.664,3.348z"/>
</svg>