<svg version="1.2" baseProfile="tiny" id="EdgeSVG_kpuSe" x="0px" y="0px" width="99.995px" height="120.155px" viewBox="0 0 99.995 120.155" xmlns:xlink="http://www.w3.org/1999/xlink" xmlns="http://www.w3.org/2000/svg">
  <linearGradient id="SVGID_1_" gradientUnits="userSpaceOnUse" x1="0" y1="60.0776" x2="99.9951" y2="60.0776">
    <stop offset="0" style="stop-color:#000000;stop-opacity:0.5"/>
    <stop offset="1" style="stop-color:#000000;stop-opacity:0.5"/>
  </linearGradient>
  <path fill="url(#SVGID_1_)" d="M99.919,10.831h-1.596c-0.136-0.153-0.305-0.273-0.497-0.36c-0.018-0.008-0.034-0.018-0.052-0.025&#xD;&#xA;&#x9;&#x9;c-0.04-0.016-0.073-0.043-0.114-0.056V9.358h-0.188V4.55h0.162V2.39V0.328V0.295H96.64H95.72C95.479,0.112,95.182,0,94.856,0&#xD;&#xA;&#x9;&#x9;h-1.672c-0.795,0-1.441,0.647-1.441,1.442v1.961c0,0.795,0.646,1.442,1.441,1.442h1.313v4.512h-0.188v1.033&#xD;&#xA;&#x9;&#x9;c-0.021,0.007-0.038,0.022-0.059,0.03c-0.106,0.039-0.204,0.086-0.292,0.146c-0.055,0.036-0.101,0.078-0.15,0.12&#xD;&#xA;&#x9;&#x9;c-0.047,0.042-0.093,0.083-0.133,0.13c-0.005,0.005-0.011,0.01-0.016,0.015h-1.15c-0.842,0-1.603,0.347-2.15,0.901h-0.719&#xD;&#xA;&#x9;&#x9;c-0.006-0.078-0.011-0.156-0.025-0.231c-0.004-0.021-0.012-0.042-0.017-0.063c-0.025-0.114-0.058-0.225-0.101-0.332&#xD;&#xA;&#x9;&#x9;c-0.005-0.012-0.011-0.024-0.017-0.036c-0.048-0.115-0.106-0.223-0.173-0.326c-0.003-0.005-0.007-0.009-0.01-0.014&#xD;&#xA;&#x9;&#x9;c-0.071-0.107-0.151-0.207-0.24-0.298c-0.003-0.003-0.006-0.006-0.009-0.009c-0.088-0.09-0.185-0.172-0.289-0.245&#xD;&#xA;&#x9;&#x9;c-0.006-0.004-0.011-0.008-0.017-0.012c-0.105-0.072-0.218-0.135-0.338-0.188c-0.001,0-0.003-0.001-0.004-0.002&#xD;&#xA;&#x9;&#x9;c-0.144-0.063-0.294-0.117-0.456-0.147l-1.161-0.018H13.55h-0.978c-1.071,0-1.942,0.848-2.032,1.921H9.637&#xD;&#xA;&#x9;&#x9;c-0.547-0.554-1.308-0.901-2.149-0.901h-0.92c-0.133-0.15-0.298-0.267-0.485-0.354c-0.022-0.011-0.042-0.022-0.065-0.032&#xD;&#xA;&#x9;&#x9;c-0.039-0.016-0.071-0.042-0.112-0.055V9.358H5.718V4.846H7.03c0.795,0,1.442-0.647,1.442-1.442V1.442C8.472,0.647,7.825,0,7.03,0&#xD;&#xA;&#x9;&#x9;H5.358C5.033,0,4.735,0.112,4.494,0.295H3.574H2.578v0.033V2.39v2.16H2.74v4.808H2.553v1.033c-0.022,0.007-0.04,0.023-0.062,0.031&#xD;&#xA;&#x9;&#x9;c-0.101,0.038-0.195,0.084-0.28,0.14c-0.063,0.04-0.117,0.087-0.172,0.136c-0.04,0.037-0.081,0.073-0.116,0.114&#xD;&#xA;&#x9;&#x9;c-0.006,0.007-0.013,0.012-0.019,0.019H0.076H0v26.576h0.005v0.029h0.784c0.087,0.023,0.171,0.054,0.265,0.054h0.937v2.686v4.496&#xD;&#xA;&#x9;&#x9;v0.061h1.043v0.346v9.902v0.294H2.513v0.05v55.349v0.354H1.991v0.176v3.81v5.051v0.001h8.453v-0.001v-5.051v-3.81v-0.176H9.992&#xD;&#xA;&#x9;&#x9;L9.995,97.08h0.329h79.915v13.612v0.426h-0.522v0.177v3.81v5.051h8.453v-5.051v-3.81v-0.177h-0.521v-0.426V55.238h-0.514&#xD;&#xA;&#x9;&#x9;l-0.007-10.416h1.042v-0.06v-4.496V37.49h0.769c0.094,0,0.178-0.031,0.265-0.054h0.787h0.005V10.831H99.919z M9.996,91.472&#xD;&#xA;&#x9;&#x9;l0.006-26.37h0.322h79.612h0.302V91.42h-0.314v0.001L9.996,91.472z M89.716,44.762v0.06h1.043v0.358v10.058h-0.521v4.254h-0.302&#xD;&#xA;&#x9;&#x9;H10.324h-0.32l0-3.148c0-0.143-0.03-0.278-0.082-0.403v-0.617v-0.05H9.4v-0.294v-9.902v-0.346h1.043v-0.061v-4.496v-2.909&#xD;&#xA;&#x9;&#x9;c0.009,0.003,0.02,0.005,0.029,0.009c0.063,0.025,0.135,0.04,0.202,0.062c0.351,0.117,0.736,0.198,1.187,0.198&#xD;&#xA;&#x9;&#x9;c0.097,0,0.196-0.003,0.237-0.008l58.523-0.008h17.282c0.084,0.005,0.167,0.009,0.248,0.009c0.25,0,0.479-0.027,0.698-0.066&#xD;&#xA;&#x9;&#x9;c0.011-0.002,0.024-0.001,0.035-0.003c0.113-0.021,0.212-0.058,0.317-0.088c0.113-0.032,0.23-0.061,0.334-0.103&#xD;&#xA;&#x9;&#x9;c0.064-0.026,0.121-0.058,0.181-0.087v3.087V44.762z"/>
</svg>