<svg version="1.2" baseProfile="tiny" viewBox="0 0 45.500 40.000" xmlns:xlink="http://www.w3.org/1999/xlink" xmlns="http://www.w3.org/2000/svg">
<path style="fill:#ffffff;" d="M19.979,11.887h4.372c0,0,3.031,5.262,3.383,5.991c0.354,0.729,0.165,1.268,0.165,1.268l-1.664,5.224    c0,0-0.991,0.558-1.063,1.848c-0.076,1.432,0.795,1.986,0.795,1.986l3.248,5.767c-1.658,0.792-2.361-0.869-2.361-0.869    l-2.827-4.844c0,0,0.802-0.486,0.794-2.04c-0.008-1.572-1.694-2.183-1.694-2.183s-3.939,0-5.959,0    c-2.021,0-1.723-1.482-1.723-1.482h5.068c0,0,2.664-2.866,3.039-3.288c0.376-0.423,0.165-0.682,0.165-0.682L19.979,11.887z     M22.959,27.643c0.459-0.248,0.752-0.762,0.752-1.334c0-0.82-0.604-1.487-1.347-1.487v0.212c0.625,0,1.136,0.571,1.136,1.275    c0,0.502-0.26,0.95-0.663,1.159l0.021-0.481l-0.66,1.059l1.253-0.19L22.959,27.643z M44.33,37.797c0,0.57-0.464,1.032-1.034,1.032    c-0.004,0-0.011,0-0.018,0H2.203c-0.37,0-0.71-0.197-0.895-0.517c-0.184-0.32-0.184-0.714,0.001-1.034L21.94,1.685    c0.184-0.319,0.524-0.515,0.893-0.515c0.001,0,0.002,0,0.003,0c0.369,0.001,0.709,0.199,0.894,0.519l20.359,35.447    C44.239,37.315,44.33,37.545,44.33,37.797z M41.494,36.766L22.829,4.27L3.995,36.766H41.494z M22.337,28.54    c-0.997,0-1.83-0.688-2.068-1.61c-0.237,0.923-1.071,1.61-2.068,1.61c-0.997,0-1.829-0.687-2.068-1.609    c-0.238,0.923-1.07,1.609-2.067,1.609c-1.182,0-2.143-0.961-2.143-2.143c0-1.181,0.961-2.141,2.143-2.141    c0.997,0,1.83,0.687,2.067,1.61c0.239-0.924,1.071-1.61,2.068-1.61c0.997,0,1.831,0.687,2.068,1.611    c0.238-0.925,1.071-1.611,2.068-1.611c1.181,0,2.143,0.96,2.143,2.141C24.479,27.579,23.518,28.54,22.337,28.54z M15.997,26.397    c0-1.063-0.867-1.93-1.931-1.93s-1.931,0.867-1.931,1.93c0,1.065,0.866,1.931,1.931,1.931S15.997,27.462,15.997,26.397z     M20.132,26.397c0-1.063-0.866-1.93-1.931-1.93c-1.063,0-1.93,0.867-1.93,1.93c0,1.065,0.866,1.931,1.93,1.931    C19.266,28.328,20.132,27.462,20.132,26.397z M22.337,28.328c1.064,0,1.932-0.865,1.932-1.931c0-1.063-0.867-1.93-1.932-1.93    c-1.064,0-1.931,0.867-1.931,1.93C20.406,27.462,21.273,28.328,22.337,28.328z M23.635,30.68l-1.283,2.796    c0,0-0.662,1.927,0.756,2.325l2.235-4.628l-0.675-1.134L23.635,30.68z M27.645,24.256c0.997,0,1.829,0.687,2.068,1.609    c0.238-0.923,1.071-1.609,2.068-1.609c1.181,0,2.142,0.96,2.142,2.141c0,1.182-0.961,2.143-2.142,2.143    c-0.997,0-1.83-0.687-2.068-1.609c-0.239,0.923-1.071,1.609-2.068,1.609c-1.181,0-2.143-0.961-2.143-2.143    C25.502,25.216,26.464,24.256,27.645,24.256z M29.85,26.397c0,1.065,0.865,1.931,1.932,1.931c1.063,0,1.93-0.865,1.93-1.931    c0-1.063-0.866-1.93-1.93-1.93C30.715,24.467,29.85,25.334,29.85,26.397z M27.645,24.467c-1.063,0-1.93,0.867-1.93,1.93    c0,1.065,0.866,1.931,1.93,1.931c1.064,0,1.931-0.865,1.931-1.931C29.575,25.334,28.709,24.467,27.645,24.467z M27.652,25.034    v-0.212c-0.743,0-1.347,0.667-1.347,1.487c0,0.572,0.292,1.086,0.751,1.334l-0.49,0.212l1.253,0.19l-0.659-1.059l0.018,0.481    c-0.402-0.209-0.66-0.657-0.66-1.159C26.518,25.605,27.025,25.034,27.652,25.034z M23.711,28.482l-1.992,0.977    c0,0-0.894,0.542-0.423,2.139l3.172-1.879L23.711,28.482z"/>
</svg>